PathFileType	4	(X/Y/Z)	D:\TRACE\v60_Jaco2_6-2-23\ArmBodyNoDRS1-v60.trc
DataRate	CameraRate	NumFrames	NumMarkers	Units	OrigDataRate	OrigDataStartFrame	OrigNumFrames
100.00	100.00	      14	9	mm	100.00	3326	      5320
Frame#	Time	front left toe			Front right toe			aft left toe			aft right toe			Arm			FL body			FR body			AL Body			AR Body			
		X1	Y1	Z1	X2	Y2	Z2	X3	Y3	Z3	X4	Y4	Z4	X5	Y5	Z5	X6	Y6	Z6	X7	Y7	Z7	X8	Y8	Z8	X9	Y9	Z9	

3326	33.250	-157.14432	22.07561	-359.18262	225.31857	18.72911	-403.11972	-119.19138	12.70772	238.27281	252.05971	17.99779	240.38423	35.96749	1098.50256	-770.13403	-47.85707	577.34296	-505.71768	111.21317	579.75128	-512.61566	-0.19793	564.88013	438.34839	153.38435	554.48755	432.14761	
3327	33.260	-156.21555	21.44537	-358.62366	223.77499	21.98516	-401.65353	-117.66095	15.04139	239.55551	251.58507	17.50783	240.66121	36.16721	1098.92224	-769.80603	-47.77708	578.87787	-505.17957	111.47018	580.91577	-511.84961	-0.61899	565.34314	439.34827	153.17165	555.22498	433.75549	
3328	33.270	-156.51198	22.07205	-359.20428	221.72519	25.76186	-397.88516	-115.23703	17.80882	242.72313	251.76572	17.55451	240.38242	37.03825	1099.99023	-768.51086	-47.33615	579.45203	-504.48096	111.25222	581.59332	-510.72668	-1.02717	565.53485	439.86807	152.88135	555.24005	434.68851	
3329	33.280	-156.62715	21.51930	-359.24976	219.28236	31.26366	-394.35098	-111.60671	24.45795	244.45744	251.95236	17.51433	240.33836	38.03687	1100.75671	-767.18146	-47.16830	579.75934	-503.71484	111.56709	581.82098	-509.93185	-1.46052	565.70630	440.80771	152.67923	555.32684	434.61926	
3330	33.290	-156.89249	21.24811	-359.42517	217.89842	39.69621	-392.20230	-109.29969	31.86068	245.06721	251.76797	17.42476	240.56960	39.24228	1102.25159	-765.98523	-47.51184	579.81354	-503.12549	112.09995	581.90448	-509.51462	-1.45250	565.99426	441.49121	152.45505	555.63318	436.09085	
3331	33.300	-157.01437	21.23410	-359.40909	217.60564	49.69322	-390.99603	-108.41079	42.76812	245.01804	251.83600	17.34435	240.66107	39.94471	1103.32605	-764.70648	-47.01732	579.57922	-502.16025	112.10625	581.86804	-508.76639	-1.22095	565.93597	442.20157	152.25488	555.59686	437.07376	
3332	33.310	-156.82318	21.48645	-358.70685	217.34305	60.58795	-390.70026	-110.26746	53.34995	245.85883	251.98442	17.31498	240.80765	40.65788	1103.73315	-763.90991	-47.28776	579.49579	-501.15720	111.71156	581.80023	-507.87726	-0.70538	565.40234	443.41953	152.64545	555.13403	437.00275	
3333	33.320	-157.00157	21.37721	-358.90067	218.01385	71.81856	-390.07727	-112.86168	64.56121	246.65553	252.08696	17.10069	240.71635	40.73285	1102.85535	-762.72174	-47.77342	579.50757	-500.45761	111.34759	581.31653	-506.56464	-0.53524	564.70044	444.14444	153.89304	554.02045	437.89606	
3334	33.330	-157.14154	21.08682	-358.71533	219.65298	83.25261	-388.91782	-114.52438	75.46112	247.92798	252.21954	16.85969	240.70432	40.34842	1101.81335	-761.86963	-47.33870	579.01086	-499.15811	111.24652	580.98859	-505.87250	-0.07773	563.82117	445.05585	153.38159	553.29572	438.68002	
3335	33.340	-157.27820	20.94401	-358.68417	220.84422	94.28545	-387.72208	-116.05164	86.30533	249.51988	252.20616	16.72980	240.73940	39.50378	1100.90662	-760.66833	-47.60866	578.85400	-498.10846	111.52995	580.65857	-505.08597	0.16453	562.99542	445.81161	154.58710	552.27991	439.52802	
3336	33.350	-157.24377	20.87150	-358.56064	221.64215	104.87206	-385.77686	-115.73695	96.66658	251.35831	252.28079	16.56389	240.83896	39.09613	1100.17603	-759.97894	-47.96573	578.75769	-497.38327	111.17175	580.00708	-503.89935	0.78937	562.33618	447.12469	153.88145	551.89526	440.58124	
3337	33.360	-157.31726	20.83492	-358.39822	222.12099	114.91284	-383.28934	-115.34824	106.59837	253.51680	252.32585	16.38356	240.90704	38.38383	1099.90515	-759.07343	-47.56501	578.23700	-496.27985	111.67581	579.90302	-503.26971	1.14173	562.19708	447.77209	153.89569	551.71008	442.23260	
3338	33.370	-157.27296	20.91861	-358.25464	221.39272	123.90842	-381.10861	-115.50373	115.76231	255.68959	252.47307	16.33597	241.08620	38.43244	1099.77856	-758.04871	-47.51754	577.81293	-495.08316	111.44386	579.63684	-502.34656	1.83811	562.01025	448.84879	154.51582	551.64697	443.38263	
3339	33.380	-157.21120	20.91210	-358.14743	221.71240	131.97557	-378.88617	-114.90782	123.37925	258.32477	252.73749	16.35310	241.21638	38.34604	1099.47583	-756.65515	-47.45315	577.07513	-494.08929	111.24859	578.60992	-500.84222	1.90303	561.85229	449.93149	154.77785	551.48370	444.29865	
